<svg id="visual" viewBox="0 0 900 600" width="900" height="600" xmlns="http://www.w3.org/2000/svg" xmlns:xlink="http://www.w3.org/1999/xlink" version="1.1"><rect x="0" y="0" width="900" height="600" fill="#ffffff"></rect><path d="M0 47L16.7 43.7C33.3 40.3 66.7 33.7 100 31C133.3 28.3 166.7 29.7 200 31.5C233.3 33.3 266.7 35.7 300 37.7C333.3 39.7 366.7 41.3 400 39.8C433.3 38.3 466.7 33.7 500 32.3C533.3 31 566.7 33 600 35C633.3 37 666.7 39 700 42.2C733.3 45.3 766.7 49.7 800 47C833.3 44.3 866.7 34.7 883.3 29.8L900 25L900 0L883.3 0C866.7 0 833.3 0 800 0C766.7 0 733.3 0 700 0C666.7 0 633.3 0 600 0C566.7 0 533.3 0 500 0C466.7 0 433.3 0 400 0C366.7 0 333.3 0 300 0C266.7 0 233.3 0 200 0C166.7 0 133.3 0 100 0C66.7 0 33.3 0 16.7 0L0 0Z" fill="#dfe6da"></path><path d="M0 32L16.7 32.3C33.3 32.7 66.7 33.3 100 32.5C133.3 31.7 166.7 29.3 200 27C233.3 24.7 266.7 22.3 300 21.3C333.3 20.3 366.7 20.7 400 23.8C433.3 27 466.7 33 500 36.7C533.3 40.3 566.7 41.7 600 41.7C633.3 41.7 666.7 40.3 700 37.3C733.3 34.3 766.7 29.7 800 27.3C833.3 25 866.7 25 883.3 25L900 25L900 0L883.3 0C866.7 0 833.3 0 800 0C766.7 0 733.3 0 700 0C666.7 0 633.3 0 600 0C566.7 0 533.3 0 500 0C466.7 0 433.3 0 400 0C366.7 0 333.3 0 300 0C266.7 0 233.3 0 200 0C166.7 0 133.3 0 100 0C66.7 0 33.3 0 16.7 0L0 0Z" fill="#dfe6da"></path><path d="M0 26L16.7 23.8C33.3 21.7 66.7 17.3 100 17.8C133.3 18.3 166.7 23.7 200 25.2C233.3 26.7 266.7 24.3 300 25.3C333.3 26.3 366.7 30.7 400 31C433.3 31.3 466.7 27.7 500 27.5C533.3 27.3 566.7 30.7 600 29.5C633.3 28.3 666.7 22.7 700 21.3C733.3 20 766.7 23 800 23.7C833.3 24.3 866.7 22.7 883.3 21.8L900 21L900 0L883.3 0C866.7 0 833.3 0 800 0C766.7 0 733.3 0 700 0C666.7 0 633.3 0 600 0C566.7 0 533.3 0 500 0C466.7 0 433.3 0 400 0C366.7 0 333.3 0 300 0C266.7 0 233.3 0 200 0C166.7 0 133.3 0 100 0C66.7 0 33.3 0 16.7 0L0 0Z" fill="#dfe6da"></path><path d="M0 12L16.7 13.2C33.3 14.3 66.7 16.7 100 17.7C133.3 18.7 166.7 18.3 200 19.2C233.3 20 266.7 22 300 21.7C333.3 21.3 366.7 18.7 400 18.7C433.3 18.7 466.7 21.3 500 21.3C533.3 21.3 566.7 18.7 600 16.2C633.3 13.7 666.7 11.3 700 12.8C733.3 14.3 766.7 19.7 800 20.5C833.3 21.3 866.7 17.7 883.3 15.8L900 14L900 0L883.3 0C866.7 0 833.3 0 800 0C766.7 0 733.3 0 700 0C666.7 0 633.3 0 600 0C566.7 0 533.3 0 500 0C466.7 0 433.3 0 400 0C366.7 0 333.3 0 300 0C266.7 0 233.3 0 200 0C166.7 0 133.3 0 100 0C66.7 0 33.3 0 16.7 0L0 0Z" fill="#dfe6da"></path><path d="M0 12L16.7 12.2C33.3 12.3 66.7 12.7 100 13.3C133.3 14 166.7 15 200 13.8C233.3 12.7 266.7 9.3 300 7.3C333.3 5.3 366.7 4.7 400 4.3C433.3 4 466.7 4 500 5C533.3 6 566.7 8 600 9.2C633.3 10.3 666.7 10.7 700 11.5C733.3 12.3 766.7 13.7 800 13.2C833.3 12.7 866.7 10.3 883.3 9.2L900 8L900 0L883.3 0C866.7 0 833.3 0 800 0C766.7 0 733.3 0 700 0C666.7 0 633.3 0 600 0C566.7 0 533.3 0 500 0C466.7 0 433.3 0 400 0C366.7 0 333.3 0 300 0C266.7 0 233.3 0 200 0C166.7 0 133.3 0 100 0C66.7 0 33.3 0 16.7 0L0 0Z" fill="#dfe6da"></path></svg>