<svg id="visual" viewBox="0 0 900 600" width="900" height="600" xmlns="http://www.w3.org/2000/svg" xmlns:xlink="http://www.w3.org/1999/xlink" version="1.1"><rect x="0" y="0" width="900" height="600" fill="#ffffff"></rect><path d="M0 556L16.7 556.5C33.3 557 66.7 558 100 555.8C133.3 553.7 166.7 548.3 200 546.8C233.3 545.3 266.7 547.7 300 549.2C333.3 550.7 366.7 551.3 400 554.7C433.3 558 466.7 564 500 567C533.3 570 566.7 570 600 570.2C633.3 570.3 666.7 570.7 700 567.3C733.3 564 766.7 557 800 557.2C833.3 557.3 866.7 564.7 883.3 568.3L900 572L900 601L883.3 601C866.7 601 833.3 601 800 601C766.7 601 733.3 601 700 601C666.7 601 633.3 601 600 601C566.7 601 533.3 601 500 601C466.7 601 433.3 601 400 601C366.7 601 333.3 601 300 601C266.7 601 233.3 601 200 601C166.7 601 133.3 601 100 601C66.7 601 33.3 601 16.7 601L0 601Z" fill="#dfe6da"></path><path d="M0 557L16.7 559.2C33.3 561.3 66.7 565.7 100 567.3C133.3 569 166.7 568 200 566.3C233.3 564.7 266.7 562.3 300 561.5C333.3 560.7 366.7 561.3 400 563C433.3 564.7 466.7 567.3 500 566.8C533.3 566.3 566.7 562.7 600 563C633.3 563.3 666.7 567.7 700 567.8C733.3 568 766.7 564 800 562.2C833.3 560.3 866.7 560.7 883.3 560.8L900 561L900 601L883.3 601C866.7 601 833.3 601 800 601C766.7 601 733.3 601 700 601C666.7 601 633.3 601 600 601C566.7 601 533.3 601 500 601C466.7 601 433.3 601 400 601C366.7 601 333.3 601 300 601C266.7 601 233.3 601 200 601C166.7 601 133.3 601 100 601C66.7 601 33.3 601 16.7 601L0 601Z" fill="#dfe6da"></path><path d="M0 580L16.7 579.7C33.3 579.3 66.7 578.7 100 576.8C133.3 575 166.7 572 200 572C233.3 572 266.7 575 300 574.8C333.3 574.7 366.7 571.3 400 570.3C433.3 569.3 466.7 570.7 500 570.8C533.3 571 566.7 570 600 568.8C633.3 567.7 666.7 566.3 700 567C733.3 567.7 766.7 570.3 800 572C833.3 573.7 866.7 574.3 883.3 574.7L900 575L900 601L883.3 601C866.7 601 833.3 601 800 601C766.7 601 733.3 601 700 601C666.7 601 633.3 601 600 601C566.7 601 533.3 601 500 601C466.7 601 433.3 601 400 601C366.7 601 333.3 601 300 601C266.7 601 233.3 601 200 601C166.7 601 133.3 601 100 601C66.7 601 33.3 601 16.7 601L0 601Z" fill="#dfe6da"></path><path d="M0 577L16.7 579.3C33.3 581.7 66.7 586.3 100 586.8C133.3 587.3 166.7 583.7 200 582.2C233.3 580.7 266.7 581.3 300 581.2C333.3 581 366.7 580 400 580C433.3 580 466.7 581 500 582.7C533.3 584.3 566.7 586.7 600 585.3C633.3 584 666.7 579 700 578C733.3 577 766.7 580 800 580.3C833.3 580.7 866.7 578.3 883.3 577.2L900 576L900 601L883.3 601C866.7 601 833.3 601 800 601C766.7 601 733.3 601 700 601C666.7 601 633.3 601 600 601C566.7 601 533.3 601 500 601C466.7 601 433.3 601 400 601C366.7 601 333.3 601 300 601C266.7 601 233.3 601 200 601C166.7 601 133.3 601 100 601C66.7 601 33.3 601 16.7 601L0 601Z" fill="#dfe6da"></path><path d="M0 583L16.7 584.2C33.3 585.3 66.7 587.7 100 589.3C133.3 591 166.7 592 200 592C233.3 592 266.7 591 300 590C333.3 589 366.7 588 400 588.8C433.3 589.7 466.7 592.3 500 592.3C533.3 592.3 566.7 589.7 600 589.3C633.3 589 666.7 591 700 590C733.3 589 766.7 585 800 583.8C833.3 582.7 866.7 584.3 883.3 585.2L900 586L900 601L883.3 601C866.7 601 833.3 601 800 601C766.7 601 733.3 601 700 601C666.7 601 633.3 601 600 601C566.7 601 533.3 601 500 601C466.7 601 433.3 601 400 601C366.7 601 333.3 601 300 601C266.7 601 233.3 601 200 601C166.7 601 133.3 601 100 601C66.7 601 33.3 601 16.7 601L0 601Z" fill="#dfe6da"></path></svg>