<svg id="visual" viewBox="0 0 900 600" width="900" height="600" xmlns="http://www.w3.org/2000/svg" xmlns:xlink="http://www.w3.org/1999/xlink" version="1.1"><rect x="0" y="0" width="900" height="600" fill="#ffffff"></rect><path d="M0 34L16.7 35.3C33.3 36.7 66.7 39.3 100 42.7C133.3 46 166.7 50 200 47.7C233.3 45.3 266.7 36.7 300 32.5C333.3 28.3 366.7 28.7 400 29C433.3 29.3 466.7 29.7 500 32.7C533.3 35.7 566.7 41.3 600 44.2C633.3 47 666.7 47 700 44.8C733.3 42.7 766.7 38.3 800 37C833.3 35.7 866.7 37.3 883.3 38.2L900 39L900 0L883.3 0C866.7 0 833.3 0 800 0C766.7 0 733.3 0 700 0C666.7 0 633.3 0 600 0C566.7 0 533.3 0 500 0C466.7 0 433.3 0 400 0C366.7 0 333.3 0 300 0C266.7 0 233.3 0 200 0C166.7 0 133.3 0 100 0C66.7 0 33.3 0 16.7 0L0 0Z" fill="#dfe6da"></path><path d="M0 28L16.7 29C33.3 30 66.7 32 100 33.8C133.3 35.7 166.7 37.3 200 37.8C233.3 38.3 266.7 37.7 300 35.3C333.3 33 366.7 29 400 29.8C433.3 30.7 466.7 36.3 500 36.2C533.3 36 566.7 30 600 27.3C633.3 24.7 666.7 25.3 700 25.2C733.3 25 766.7 24 800 22.7C833.3 21.3 866.7 19.7 883.3 18.8L900 18L900 0L883.3 0C866.7 0 833.3 0 800 0C766.7 0 733.3 0 700 0C666.7 0 633.3 0 600 0C566.7 0 533.3 0 500 0C466.7 0 433.3 0 400 0C366.7 0 333.3 0 300 0C266.7 0 233.3 0 200 0C166.7 0 133.3 0 100 0C66.7 0 33.3 0 16.7 0L0 0Z" fill="#dfe6da"></path><path d="M0 31L16.7 30.7C33.3 30.3 66.7 29.7 100 27C133.3 24.3 166.7 19.7 200 18.3C233.3 17 266.7 19 300 21.5C333.3 24 366.7 27 400 26.8C433.3 26.7 466.7 23.3 500 23.2C533.3 23 566.7 26 600 27.7C633.3 29.3 666.7 29.7 700 28.3C733.3 27 766.7 24 800 22C833.3 20 866.7 19 883.3 18.5L900 18L900 0L883.3 0C866.7 0 833.3 0 800 0C766.7 0 733.3 0 700 0C666.7 0 633.3 0 600 0C566.7 0 533.3 0 500 0C466.7 0 433.3 0 400 0C366.7 0 333.3 0 300 0C266.7 0 233.3 0 200 0C166.7 0 133.3 0 100 0C66.7 0 33.3 0 16.7 0L0 0Z" fill="#dfe6da"></path><path d="M0 26L16.7 23.7C33.3 21.3 66.7 16.7 100 15.8C133.3 15 166.7 18 200 19.3C233.3 20.7 266.7 20.3 300 21.2C333.3 22 366.7 24 400 22.7C433.3 21.3 466.7 16.7 500 14.3C533.3 12 566.7 12 600 14.3C633.3 16.7 666.7 21.3 700 22.5C733.3 23.7 766.7 21.3 800 18.5C833.3 15.7 866.7 12.3 883.3 10.7L900 9L900 0L883.3 0C866.7 0 833.3 0 800 0C766.7 0 733.3 0 700 0C666.7 0 633.3 0 600 0C566.7 0 533.3 0 500 0C466.7 0 433.3 0 400 0C366.7 0 333.3 0 300 0C266.7 0 233.3 0 200 0C166.7 0 133.3 0 100 0C66.7 0 33.3 0 16.7 0L0 0Z" fill="#dfe6da"></path><path d="M0 5L16.7 6.5C33.3 8 66.7 11 100 12C133.3 13 166.7 12 200 11C233.3 10 266.7 9 300 8.5C333.3 8 366.7 8 400 8.2C433.3 8.3 466.7 8.7 500 9C533.3 9.3 566.7 9.7 600 9.8C633.3 10 666.7 10 700 10.3C733.3 10.7 766.7 11.3 800 12C833.3 12.7 866.7 13.3 883.3 13.7L900 14L900 0L883.3 0C866.7 0 833.3 0 800 0C766.7 0 733.3 0 700 0C666.7 0 633.3 0 600 0C566.7 0 533.3 0 500 0C466.7 0 433.3 0 400 0C366.7 0 333.3 0 300 0C266.7 0 233.3 0 200 0C166.7 0 133.3 0 100 0C66.7 0 33.3 0 16.7 0L0 0Z" fill="#dfe6da"></path></svg>