<svg id="visual" viewBox="0 0 900 600" width="900" height="600" xmlns="http://www.w3.org/2000/svg" xmlns:xlink="http://www.w3.org/1999/xlink" version="1.1"><rect x="0" y="0" width="900" height="600" fill="#ffffff"></rect><path d="M0 569L16.7 564.8C33.3 560.7 66.7 552.3 100 550C133.3 547.7 166.7 551.3 200 555.7C233.3 560 266.7 565 300 567.2C333.3 569.3 366.7 568.7 400 567.3C433.3 566 466.7 564 500 562.3C533.3 560.7 566.7 559.3 600 560.2C633.3 561 666.7 564 700 566.3C733.3 568.7 766.7 570.3 800 567.7C833.3 565 866.7 558 883.3 554.5L900 551L900 601L883.3 601C866.7 601 833.3 601 800 601C766.7 601 733.3 601 700 601C666.7 601 633.3 601 600 601C566.7 601 533.3 601 500 601C466.7 601 433.3 601 400 601C366.7 601 333.3 601 300 601C266.7 601 233.3 601 200 601C166.7 601 133.3 601 100 601C66.7 601 33.3 601 16.7 601L0 601Z" fill="#dfe6da"></path><path d="M0 568L16.7 568.2C33.3 568.3 66.7 568.7 100 569.7C133.3 570.7 166.7 572.3 200 570.3C233.3 568.3 266.7 562.7 300 561.2C333.3 559.7 366.7 562.3 400 563.5C433.3 564.7 466.7 564.3 500 565.3C533.3 566.3 566.7 568.7 600 571.3C633.3 574 666.7 577 700 575.8C733.3 574.7 766.7 569.3 800 567.7C833.3 566 866.7 568 883.3 569L900 570L900 601L883.3 601C866.7 601 833.3 601 800 601C766.7 601 733.3 601 700 601C666.7 601 633.3 601 600 601C566.7 601 533.3 601 500 601C466.7 601 433.3 601 400 601C366.7 601 333.3 601 300 601C266.7 601 233.3 601 200 601C166.7 601 133.3 601 100 601C66.7 601 33.3 601 16.7 601L0 601Z" fill="#dfe6da"></path><path d="M0 567L16.7 568.7C33.3 570.3 66.7 573.7 100 573.3C133.3 573 166.7 569 200 567.7C233.3 566.3 266.7 567.7 300 568.8C333.3 570 366.7 571 400 573C433.3 575 466.7 578 500 579C533.3 580 566.7 579 600 576.8C633.3 574.7 666.7 571.3 700 571.8C733.3 572.3 766.7 576.7 800 578.2C833.3 579.7 866.7 578.3 883.3 577.7L900 577L900 601L883.3 601C866.7 601 833.3 601 800 601C766.7 601 733.3 601 700 601C666.7 601 633.3 601 600 601C566.7 601 533.3 601 500 601C466.7 601 433.3 601 400 601C366.7 601 333.3 601 300 601C266.7 601 233.3 601 200 601C166.7 601 133.3 601 100 601C66.7 601 33.3 601 16.7 601L0 601Z" fill="#dfe6da"></path><path d="M0 579L16.7 578.5C33.3 578 66.7 577 100 576.5C133.3 576 166.7 576 200 578.5C233.3 581 266.7 586 300 588.2C333.3 590.3 366.7 589.7 400 588.5C433.3 587.3 466.7 585.7 500 584.3C533.3 583 566.7 582 600 581.3C633.3 580.7 666.7 580.3 700 582C733.3 583.7 766.7 587.3 800 586.8C833.3 586.3 866.7 581.7 883.3 579.3L900 577L900 601L883.3 601C866.7 601 833.3 601 800 601C766.7 601 733.3 601 700 601C666.7 601 633.3 601 600 601C566.7 601 533.3 601 500 601C466.7 601 433.3 601 400 601C366.7 601 333.3 601 300 601C266.7 601 233.3 601 200 601C166.7 601 133.3 601 100 601C66.7 601 33.3 601 16.7 601L0 601Z" fill="#dfe6da"></path><path d="M0 593L16.7 591.7C33.3 590.3 66.7 587.7 100 586.7C133.3 585.7 166.7 586.3 200 586.5C233.3 586.7 266.7 586.3 300 586C333.3 585.7 366.7 585.3 400 584.5C433.3 583.7 466.7 582.3 500 583.5C533.3 584.7 566.7 588.3 600 589.2C633.3 590 666.7 588 700 587.8C733.3 587.7 766.7 589.3 800 589.8C833.3 590.3 866.7 589.7 883.3 589.3L900 589L900 601L883.3 601C866.7 601 833.3 601 800 601C766.7 601 733.3 601 700 601C666.7 601 633.3 601 600 601C566.7 601 533.3 601 500 601C466.7 601 433.3 601 400 601C366.7 601 333.3 601 300 601C266.7 601 233.3 601 200 601C166.7 601 133.3 601 100 601C66.7 601 33.3 601 16.7 601L0 601Z" fill="#dfe6da"></path></svg>