<svg id="visual" viewBox="0 0 900 600" width="900" height="600" xmlns="http://www.w3.org/2000/svg" xmlns:xlink="http://www.w3.org/1999/xlink" version="1.1"><rect x="0" y="0" width="900" height="600" fill="#ffffff"></rect><path d="M0 568L16.7 569.2C33.3 570.3 66.7 572.7 100 568.7C133.3 564.7 166.7 554.3 200 554C233.3 553.7 266.7 563.3 300 564.2C333.3 565 366.7 557 400 553C433.3 549 466.7 549 500 550.2C533.3 551.3 566.7 553.7 600 554.5C633.3 555.3 666.7 554.7 700 553.2C733.3 551.7 766.7 549.3 800 551.7C833.3 554 866.7 561 883.3 564.5L900 568L900 601L883.3 601C866.7 601 833.3 601 800 601C766.7 601 733.3 601 700 601C666.7 601 633.3 601 600 601C566.7 601 533.3 601 500 601C466.7 601 433.3 601 400 601C366.7 601 333.3 601 300 601C266.7 601 233.3 601 200 601C166.7 601 133.3 601 100 601C66.7 601 33.3 601 16.7 601L0 601Z" fill="#dfe6da"></path><path d="M0 554L16.7 556.5C33.3 559 66.7 564 100 567.5C133.3 571 166.7 573 200 572.5C233.3 572 266.7 569 300 566.8C333.3 564.7 366.7 563.3 400 565C433.3 566.7 466.7 571.3 500 569.8C533.3 568.3 566.7 560.7 600 559.8C633.3 559 666.7 565 700 566.3C733.3 567.7 766.7 564.3 800 561.8C833.3 559.3 866.7 557.7 883.3 556.8L900 556L900 601L883.3 601C866.7 601 833.3 601 800 601C766.7 601 733.3 601 700 601C666.7 601 633.3 601 600 601C566.7 601 533.3 601 500 601C466.7 601 433.3 601 400 601C366.7 601 333.3 601 300 601C266.7 601 233.3 601 200 601C166.7 601 133.3 601 100 601C66.7 601 33.3 601 16.7 601L0 601Z" fill="#c7d0bf"></path><path d="M0 574L16.7 573.5C33.3 573 66.7 572 100 571.8C133.3 571.7 166.7 572.3 200 574.5C233.3 576.7 266.7 580.3 300 582C333.3 583.7 366.7 583.3 400 583C433.3 582.7 466.7 582.3 500 581.2C533.3 580 566.7 578 600 577.8C633.3 577.7 666.7 579.3 700 580.7C733.3 582 766.7 583 800 581C833.3 579 866.7 574 883.3 571.5L900 569L900 601L883.3 601C866.7 601 833.3 601 800 601C766.7 601 733.3 601 700 601C666.7 601 633.3 601 600 601C566.7 601 533.3 601 500 601C466.7 601 433.3 601 400 601C366.7 601 333.3 601 300 601C266.7 601 233.3 601 200 601C166.7 601 133.3 601 100 601C66.7 601 33.3 601 16.7 601L0 601Z" fill="#afbba4"></path><path d="M0 579L16.7 579C33.3 579 66.7 579 100 577.8C133.3 576.7 166.7 574.3 200 575.8C233.3 577.3 266.7 582.7 300 585.3C333.3 588 366.7 588 400 586.5C433.3 585 466.7 582 500 582C533.3 582 566.7 585 600 586.5C633.3 588 666.7 588 700 585.3C733.3 582.7 766.7 577.3 800 577.3C833.3 577.3 866.7 582.7 883.3 585.3L900 588L900 601L883.3 601C866.7 601 833.3 601 800 601C766.7 601 733.3 601 700 601C666.7 601 633.3 601 600 601C566.7 601 533.3 601 500 601C466.7 601 433.3 601 400 601C366.7 601 333.3 601 300 601C266.7 601 233.3 601 200 601C166.7 601 133.3 601 100 601C66.7 601 33.3 601 16.7 601L0 601Z" fill="#98a68a"></path><path d="M0 589L16.7 590.3C33.3 591.7 66.7 594.3 100 595C133.3 595.7 166.7 594.3 200 593C233.3 591.7 266.7 590.3 300 589C333.3 587.7 366.7 586.3 400 585.8C433.3 585.3 466.7 585.7 500 585.3C533.3 585 566.7 584 600 584.3C633.3 584.7 666.7 586.3 700 588C733.3 589.7 766.7 591.3 800 591.2C833.3 591 866.7 589 883.3 588L900 587L900 601L883.3 601C866.7 601 833.3 601 800 601C766.7 601 733.3 601 700 601C666.7 601 633.3 601 600 601C566.7 601 533.3 601 500 601C466.7 601 433.3 601 400 601C366.7 601 333.3 601 300 601C266.7 601 233.3 601 200 601C166.7 601 133.3 601 100 601C66.7 601 33.3 601 16.7 601L0 601Z" fill="#819171"></path></svg>