<svg id="visual" viewBox="0 0 900 600" width="900" height="600" xmlns="http://www.w3.org/2000/svg" xmlns:xlink="http://www.w3.org/1999/xlink" version="1.1"><rect x="0" y="0" width="900" height="600" fill="#ffffff"></rect><path d="M0 35L16.7 33.5C33.3 32 66.7 29 100 31.3C133.3 33.7 166.7 41.3 200 42C233.3 42.7 266.7 36.3 300 36.2C333.3 36 366.7 42 400 41.3C433.3 40.7 466.7 33.3 500 32C533.3 30.7 566.7 35.3 600 37.7C633.3 40 666.7 40 700 40C733.3 40 766.7 40 800 38.5C833.3 37 866.7 34 883.3 32.5L900 31L900 0L883.3 0C866.7 0 833.3 0 800 0C766.7 0 733.3 0 700 0C666.7 0 633.3 0 600 0C566.7 0 533.3 0 500 0C466.7 0 433.3 0 400 0C366.7 0 333.3 0 300 0C266.7 0 233.3 0 200 0C166.7 0 133.3 0 100 0C66.7 0 33.3 0 16.7 0L0 0Z" fill="#dfe6da"></path><path d="M0 25L16.7 25.8C33.3 26.7 66.7 28.3 100 31C133.3 33.7 166.7 37.3 200 37.5C233.3 37.7 266.7 34.3 300 32.7C333.3 31 366.7 31 400 30.8C433.3 30.7 466.7 30.3 500 29.2C533.3 28 566.7 26 600 24.2C633.3 22.3 666.7 20.7 700 22.5C733.3 24.3 766.7 29.7 800 32.3C833.3 35 866.7 35 883.3 35L900 35L900 0L883.3 0C866.7 0 833.3 0 800 0C766.7 0 733.3 0 700 0C666.7 0 633.3 0 600 0C566.7 0 533.3 0 500 0C466.7 0 433.3 0 400 0C366.7 0 333.3 0 300 0C266.7 0 233.3 0 200 0C166.7 0 133.3 0 100 0C66.7 0 33.3 0 16.7 0L0 0Z" fill="#ced8c5"></path><path d="M0 36L16.7 34.3C33.3 32.7 66.7 29.3 100 28.5C133.3 27.7 166.7 29.3 200 28.2C233.3 27 266.7 23 300 20.3C333.3 17.7 366.7 16.3 400 17.3C433.3 18.3 466.7 21.7 500 22.5C533.3 23.3 566.7 21.7 600 22.3C633.3 23 666.7 26 700 27.2C733.3 28.3 766.7 27.7 800 27C833.3 26.3 866.7 25.7 883.3 25.3L900 25L900 0L883.3 0C866.7 0 833.3 0 800 0C766.7 0 733.3 0 700 0C666.7 0 633.3 0 600 0C566.7 0 533.3 0 500 0C466.7 0 433.3 0 400 0C366.7 0 333.3 0 300 0C266.7 0 233.3 0 200 0C166.7 0 133.3 0 100 0C66.7 0 33.3 0 16.7 0L0 0Z" fill="#bdcab1"></path><path d="M0 13L16.7 12C33.3 11 66.7 9 100 9.2C133.3 9.3 166.7 11.7 200 12.5C233.3 13.3 266.7 12.7 300 14.5C333.3 16.3 366.7 20.7 400 20.7C433.3 20.7 466.7 16.3 500 14.8C533.3 13.3 566.7 14.7 600 15C633.3 15.3 666.7 14.7 700 14.5C733.3 14.3 766.7 14.7 800 14.7C833.3 14.7 866.7 14.3 883.3 14.2L900 14L900 0L883.3 0C866.7 0 833.3 0 800 0C766.7 0 733.3 0 700 0C666.7 0 633.3 0 600 0C566.7 0 533.3 0 500 0C466.7 0 433.3 0 400 0C366.7 0 333.3 0 300 0C266.7 0 233.3 0 200 0C166.7 0 133.3 0 100 0C66.7 0 33.3 0 16.7 0L0 0Z" fill="#acbc9c"></path><path d="M0 13L16.7 12C33.3 11 66.7 9 100 9.3C133.3 9.7 166.7 12.3 200 13.7C233.3 15 266.7 15 300 13.8C333.3 12.7 366.7 10.3 400 9.3C433.3 8.3 466.7 8.7 500 9.2C533.3 9.7 566.7 10.3 600 11.7C633.3 13 666.7 15 700 15C733.3 15 766.7 13 800 10.7C833.3 8.3 866.7 5.7 883.3 4.3L900 3L900 0L883.3 0C866.7 0 833.3 0 800 0C766.7 0 733.3 0 700 0C666.7 0 633.3 0 600 0C566.7 0 533.3 0 500 0C466.7 0 433.3 0 400 0C366.7 0 333.3 0 300 0C266.7 0 233.3 0 200 0C166.7 0 133.3 0 100 0C66.7 0 33.3 0 16.7 0L0 0Z" fill="#9caf88"></path></svg>